<?xml version="1.0" standalone="no"?>
<!DOCTYPE svg PUBLIC "-//W3C//DTD SVG 20010904//EN"
 "http://www.w3.org/TR/2001/REC-SVG-20010904/DTD/svg10.dtd">
<svg version="1.0" xmlns="http://www.w3.org/2000/svg"
 width="1366.000000pt" height="768.000000pt" viewBox="0 0 1366.000000 768.000000"
 preserveAspectRatio="xMidYMid meet">

<g transform="translate(0.000000,768.000000) scale(0.100000,-0.100000)"
fill="#000000" stroke="none">
<path d="M0 3840 l0 -3840 6830 0 6830 0 0 3840 0 3840 -6830 0 -6830 0 0
-3840z m13617 3 c1 -2092 -1 -3804 -5 -3804 -4 -1 -1179 -3 -2612 -4 -2155 -3
-2610 -1 -2633 10 -15 8 -25 10 -22 6 2 -5 -12 -11 -33 -13 -46 -6 -450 -3
-456 3 -4 4 -18 81 -33 182 -3 20 -10 37 -15 37 -12 0 -2 -77 11 -95 11 -13
13 -105 2 -105 -8 0 -23 67 -37 163 -6 43 -5 47 15 47 11 0 21 4 21 9 0 11
-25 21 -51 21 -16 0 -18 -4 -11 -17 14 -27 26 -234 14 -242 -5 -3 -39 -5 -75
-3 l-65 4 -11 66 c-6 37 -18 125 -26 196 -9 72 -17 132 -19 134 -5 4 -25 -117
-29 -167 -2 -31 -4 -29 -31 35 -18 42 -43 80 -63 97 -30 26 -33 34 -33 82 0
65 -22 92 -49 59 -13 -16 -25 -20 -49 -16 -20 2 -32 0 -32 -7 0 -6 5 -11 10
-11 6 0 10 -7 10 -16 0 -8 -4 -13 -9 -10 -5 4 -11 1 -13 -6 -3 -7 -19 -13 -36
-14 -26 -1 -32 2 -32 19 0 17 -2 19 -12 8 -10 -9 -13 -69 -13 -231 0 -207 -1
-219 -19 -224 -28 -7 -7090 -8 -7109 0 -16 6 -17 282 -17 3803 0 2089 3 3801
7 3804 3 4 3055 6 6782 5 l6776 -3 2 -3802z"/>
<path d="M8928 6343 c6 -2 18 -2 25 0 6 3 1 5 -13 5 -14 0 -19 -2 -12 -5z"/>
<path d="M8846 6314 c-9 -8 -13 -20 -10 -26 4 -7 10 -5 16 5 5 9 16 21 26 26
16 10 16 10 0 11 -9 0 -24 -7 -32 -16z"/>
<path d="M9008 6323 c6 -2 18 -2 25 0 6 3 1 5 -13 5 -14 0 -19 -2 -12 -5z"/>
<path d="M9070 6310 c20 -13 43 -13 35 0 -3 6 -16 10 -28 10 -18 0 -19 -2 -7
-10z"/>
<path d="M9135 6290 c3 -5 8 -10 11 -10 2 0 4 5 4 10 0 6 -5 10 -11 10 -5 0
-7 -4 -4 -10z"/>
<path d="M9242 6240 c27 -17 51 -30 55 -30 5 0 -13 14 -39 30 -27 17 -51 30
-55 30 -5 0 13 -14 39 -30z"/>
<path d="M8910 6205 c0 -17 50 -21 66 -6 5 6 32 12 59 14 33 2 20 4 -37 5 -72
2 -88 -1 -88 -13z"/>
<path d="M9126 6195 c25 -19 34 -19 34 0 0 10 -10 15 -27 15 -26 0 -26 -1 -7
-15z"/>
<path d="M9208 6183 c7 -3 16 -2 19 1 4 3 -2 6 -13 5 -11 0 -14 -3 -6 -6z"/>
<path d="M9355 6165 c16 -13 31 -22 34 -20 5 6 -41 44 -54 44 -5 0 3 -11 20
-24z"/>
<path d="M9245 6170 c3 -5 11 -10 16 -10 6 0 7 5 4 10 -3 6 -11 10 -16 10 -6
0 -7 -4 -4 -10z"/>
<path d="M4130 6163 c-78 -7 -592 -82 -740 -109 -47 -8 -110 -19 -140 -24 -78
-14 -241 -57 -250 -67 -9 -10 5 -174 20 -249 7 -31 18 -58 26 -61 8 -3 72 6
142 21 226 46 721 121 932 140 234 21 386 39 393 45 8 8 -18 285 -28 302 -6 9
-256 10 -355 2z"/>
<path d="M9380 6111 c0 -5 7 -12 16 -15 14 -5 15 -4 4 9 -14 17 -20 19 -20 6z"/>
<path d="M9425 6100 c1 -13 27 -39 71 -70 66 -48 97 -52 58 -8 -18 20 -119 98
-127 98 -2 0 -3 -9 -2 -20z"/>
<path d="M8223 6013 c-15 -5 -18 -43 -4 -43 5 0 11 10 14 22 7 26 6 27 -10 21z"/>
<path d="M8123 5773 c0 -25 -6 -54 -43 -203 -19 -77 -72 -240 -95 -295 -8 -16
-17 -43 -21 -60 -3 -16 -22 -53 -40 -82 -19 -28 -34 -62 -35 -75 -1 -18 -3
-15 -11 12 -12 40 -1 122 37 285 13 55 26 120 29 145 l7 45 -25 -30 c-14 -16
-23 -36 -21 -44 5 -14 -36 -150 -56 -185 -42 -73 -48 -86 -42 -86 4 0 -2 -10
-13 -22 -11 -13 -29 -40 -39 -60 -10 -20 -22 -35 -26 -33 -4 3 -10 -5 -13 -18
l-7 -22 -10 25 c-6 14 -7 52 -3 88 6 58 5 64 -12 60 -11 -2 -28 -28 -47 -75
-16 -39 -44 -88 -63 -110 -19 -21 -34 -44 -34 -50 0 -16 -12 -17 -27 -2 -8 8
-13 3 -18 -20 l-6 -31 -115 3 c-62 1 -114 3 -114 4 0 1 14 9 30 18 31 16 140
115 127 115 -4 0 -13 -4 -20 -10 -75 -61 -214 -146 -224 -136 -6 6 43 62 111
127 17 16 28 31 25 33 -3 3 -21 -9 -40 -27 -61 -58 -105 -87 -116 -76 -7 7
-15 5 -26 -5 -17 -18 -62 -21 -72 -6 -16 27 -95 -4 -95 -37 0 -15 -7 -23 -22
-25 -26 -4 -36 -31 -37 -108 -1 -31 -5 -60 -10 -65 -5 -6 -15 -53 -21 -105 -7
-52 -15 -112 -17 -134 -6 -40 8 -140 34 -261 8 -38 16 -101 17 -140 1 -38 5
-77 8 -85 14 -34 69 -210 87 -275 22 -82 29 -72 34 48 4 88 11 115 23 81 3
-10 20 -55 36 -99 42 -112 58 -147 141 -310 8 -16 21 -42 28 -57 18 -41 21
-28 5 26 -8 26 -18 116 -21 201 -7 135 -6 155 7 155 16 0 33 -32 44 -85 3 -16
17 -62 30 -102 13 -39 24 -79 24 -89 0 -12 3 -15 10 -8 7 7 6 21 -4 45 -27 66
-18 559 15 723 15 77 25 58 34 -66 4 -54 11 -98 16 -98 5 0 9 -14 9 -32 0 -59
8 -23 24 112 21 164 47 267 87 337 31 54 48 66 50 36 1 -10 6 9 13 42 6 33 30
94 53 135 98 178 103 186 103 162 0 -12 -7 -39 -15 -59 -19 -46 -19 -90 0
-110 14 -14 15 -13 10 9 -4 16 3 44 21 82 28 59 44 78 44 52 0 -9 -4 -16 -8
-16 -9 0 -34 -61 -28 -68 3 -2 17 16 31 40 15 23 33 53 41 65 11 17 23 22 49
21 39 -1 42 -10 20 -52 -21 -39 -19 -46 11 -46 25 0 31 4 69 50 17 20 18 23 3
17 -10 -4 -18 -2 -18 5 0 14 40 78 49 78 8 0 71 57 71 65 0 3 -11 3 -23 -1
-36 -8 -53 39 -38 103 10 45 29 174 51 343 14 106 28 185 40 215 11 30 13 75
4 99 -10 25 -21 19 -21 -11z m-103 -608 c-7 -33 -11 -79 -11 -102 1 -51 -37
-103 -76 -103 -16 0 -23 4 -20 13 3 6 22 53 42 102 20 50 40 97 45 106 5 9 12
34 17 55 6 33 8 35 11 14 2 -14 -2 -53 -8 -85z"/>
<path d="M8254 5759 c-4 -7 -11 -29 -15 -48 -4 -20 -15 -65 -23 -101 -8 -36
-23 -106 -34 -156 -11 -50 -24 -100 -30 -110 -5 -11 -13 -38 -17 -61 -4 -24
-11 -45 -16 -49 -11 -6 -12 -34 -1 -34 4 0 12 15 18 33 13 37 90 273 109 332
l12 40 13 -43 c7 -23 20 -48 28 -55 13 -10 14 -6 8 33 -5 25 -13 84 -20 132
-11 89 -18 108 -32 87z"/>
<path d="M4350 5579 c-526 -37 -1019 -120 -1349 -226 l-144 -46 6 -77 c6 -76
40 -233 57 -260 7 -12 28 -9 122 14 157 38 183 44 268 60 221 43 373 65 619
91 165 17 225 19 216 6 -3 -5 -42 -35 -88 -67 -292 -204 -637 -481 -930 -747
-279 -253 -351 -332 -341 -375 11 -51 117 -252 132 -252 8 0 42 19 76 42 142
97 412 202 606 235 129 22 341 22 445 -1 118 -26 226 -63 348 -118 141 -64
283 -98 407 -98 243 0 613 161 862 374 54 46 56 55 29 141 -41 132 -92 235
-117 235 -6 0 -35 -17 -65 -39 -200 -142 -512 -303 -628 -323 -108 -18 -202 0
-316 63 -274 151 -396 190 -587 193 -74 0 -117 5 -115 11 10 30 420 315 754
526 123 77 118 64 110 293 -6 165 -27 317 -48 342 -13 16 -133 17 -329 3z"/>
<path d="M7678 5496 c-26 -39 -57 -83 -70 -98 -12 -15 -19 -30 -16 -34 7 -6
104 122 127 168 28 54 5 35 -41 -36z"/>
<path d="M8415 5431 c-4 -7 -2 -73 5 -147 7 -74 10 -138 6 -141 -3 -3 -12 0
-21 7 -13 10 -15 9 -15 -9 0 -13 7 -29 15 -37 13 -14 15 -14 15 1 0 33 25 7
30 -31 l5 -39 7 44 c14 96 44 72 88 -71 17 -57 45 -139 62 -183 62 -162 68
-186 70 -284 1 -53 3 -73 5 -46 9 155 15 197 26 186 7 -7 11 -48 10 -109 -1
-83 1 -93 11 -68 25 62 41 1 69 -269 12 -120 12 -136 -5 -215 -11 -46 -30
-111 -42 -142 -13 -32 -20 -58 -16 -58 8 0 27 38 50 100 21 56 27 55 34 -9 4
-33 11 -63 16 -66 6 -4 10 -1 10 4 0 6 5 11 10 11 12 0 12 -58 1 -118 -13 -68
17 -50 41 26 23 68 43 77 43 19 0 -41 7 -44 50 -21 17 9 62 33 102 53 l72 37
31 -30 30 -31 0 65 c0 52 4 68 22 87 l21 23 -26 0 c-15 0 -27 6 -28 13 0 6 -3
32 -6 55 -3 24 -2 69 2 100 6 52 8 55 21 37 106 -150 171 -201 130 -103 -19
44 -35 201 -27 256 l6 43 65 -61 c92 -88 210 -163 227 -146 3 3 -5 27 -17 53
-13 26 -27 62 -31 78 -31 114 -38 153 -33 178 3 15 1 27 -4 27 -6 0 -15 15
-21 33 -16 48 -51 237 -50 272 l0 30 17 -24 c26 -38 212 -201 229 -201 14 0
13 3 -1 23 -9 12 -26 41 -38 65 -19 36 -26 42 -45 37 -20 -5 -27 3 -58 71 -19
41 -35 80 -35 85 0 5 -4 9 -8 9 -4 0 -16 26 -27 58 -11 31 -22 59 -25 62 -7 6
-60 125 -60 135 0 4 -10 21 -22 37 -20 29 -22 30 -35 12 -7 -10 -13 -34 -13
-55 0 -38 -29 -77 -37 -51 -3 6 -11 12 -18 12 -12 0 -39 46 -56 99 -7 22 -8
21 -5 -9 9 -74 56 -258 80 -315 10 -22 24 -60 33 -85 24 -70 110 -245 127
-259 17 -14 21 -31 9 -31 -15 0 -69 56 -99 101 -42 61 -126 231 -149 299 -11
30 -25 64 -32 75 -7 11 -13 30 -13 43 0 13 -7 36 -14 51 -8 15 -20 50 -27 77
-6 27 -17 54 -24 59 -6 6 -14 17 -18 25 -4 10 -6 8 -6 -7 -1 -13 -5 -23 -10
-23 -10 0 -71 119 -71 137 0 6 -9 20 -20 33 -23 27 -55 21 -45 -10 9 -27 -23
-90 -46 -90 -10 0 -21 -4 -24 -10 -3 -5 -21 -10 -39 -10 -31 0 -66 -24 -66
-46 0 -5 -13 -18 -30 -27 -28 -17 -30 -17 -67 3 -21 11 -45 20 -53 20 -9 0
-21 5 -27 11 -8 8 -13 5 -18 -10 -8 -27 -63 -30 -71 -3 -4 9 -14 35 -24 57 -9
22 -25 63 -34 91 -21 64 -40 92 -51 75z m65 -217 c12 -36 6 -74 -10 -58 -4 5
-12 31 -16 58 -8 57 8 57 26 0z m585 -784 c20 -32 23 -44 15 -60 -6 -11 -15
-20 -20 -20 -4 0 -21 -13 -37 -30 -15 -16 -31 -30 -34 -30 -7 0 24 150 35 168
11 18 13 16 41 -28z m12 -166 c6 -15 -46 -97 -77 -121 -27 -22 -50 -16 -50 13
0 17 16 41 50 75 53 52 67 58 77 33z"/>
<path d="M9192 5400 c0 -14 2 -19 5 -12 2 6 2 18 0 25 -3 6 -5 1 -5 -13z"/>
<path d="M9216 5305 c3 -27 10 -54 15 -59 14 -15 10 34 -7 74 l-14 35 6 -50z"/>
<path d="M7448 5225 c-63 -63 -111 -115 -107 -115 10 0 133 113 193 178 93 99
28 52 -86 -63z"/>
<path d="M7645 5250 c-3 -6 1 -7 9 -4 18 7 21 14 7 14 -6 0 -13 -4 -16 -10z"/>
<path d="M9602 5230 c18 -53 42 -54 32 -2 -4 22 -12 32 -25 32 -16 0 -17 -4
-7 -30z"/>
<path d="M6572 5170 c-10 -17 -10 -20 3 -20 8 0 15 9 15 20 0 11 -1 20 -3 20
-1 0 -8 -9 -15 -20z"/>
<path d="M7544 5169 c-19 -22 -19 -22 3 -10 24 12 39 31 25 31 -5 0 -17 -10
-28 -21z"/>
<path d="M8096 5173 c-6 -14 -5 -15 5 -6 7 7 10 15 7 18 -3 3 -9 -2 -12 -12z"/>
<path d="M8070 5131 c-12 -24 -13 -31 -1 -31 5 0 11 11 13 25 6 30 2 32 -12 6z"/>
<path d="M7453 5103 c-15 -5 -17 -23 -4 -23 5 0 11 7 15 15 3 8 4 15 3 14 -1
0 -8 -3 -14 -6z"/>
<path d="M8266 5091 c-3 -4 6 -6 19 -3 14 2 25 6 25 8 0 8 -39 4 -44 -5z"/>
<path d="M8468 4999 c-6 -18 3 -69 13 -69 4 0 5 17 2 38 -7 43 -9 48 -15 31z"/>
<path d="M9612 4860 c0 -14 2 -19 5 -12 2 6 2 18 0 25 -3 6 -5 1 -5 -13z"/>
<path d="M8117 4815 c-32 -7 -60 -15 -61 -16 -2 -2 -6 -18 -9 -35 l-6 -31 31
29 c16 15 41 28 55 28 23 0 24 -3 22 -42 -4 -62 0 -88 11 -88 6 0 10 7 10 15
0 8 6 15 14 15 7 0 16 9 19 20 4 17 14 20 56 20 54 0 52 -2 55 60 1 24 5 25
76 31 56 4 38 6 -70 6 -82 0 -170 -5 -203 -12z"/>
<path d="M7718 4685 c-6 -28 6 -34 16 -9 8 22 7 34 -3 34 -5 0 -11 -11 -13
-25z"/>
<path d="M6721 4603 c-1 -23 4 -45 10 -48 18 -12 19 -1 4 45 l-14 45 0 -42z"/>
<path d="M7592 4470 c0 -19 2 -27 5 -17 2 9 2 25 0 35 -3 9 -5 1 -5 -18z"/>
<path d="M6720 4442 c0 -23 4 -42 9 -42 6 0 7 17 4 38 -8 51 -13 53 -13 4z"/>
<path d="M6743 4300 c0 -30 2 -43 4 -27 2 15 2 39 0 55 -2 15 -4 2 -4 -28z"/>
<path d="M6751 4224 c0 -11 3 -14 6 -6 3 7 2 16 -1 19 -3 4 -6 -2 -5 -13z"/>
<path d="M6781 3978 c0 -7 4 -22 9 -33 7 -17 9 -15 9 13 1 17 -3 32 -9 32 -5
0 -10 -6 -9 -12z"/>
<path d="M8803 3818 c-10 -13 -26 -108 -19 -108 7 0 38 112 33 116 -2 3 -9 -1
-14 -8z"/>
<path d="M8760 3655 c0 -9 6 -12 15 -9 8 4 15 7 15 9 0 2 -7 5 -15 9 -9 3 -15
0 -15 -9z"/>
<path d="M4735 3253 c-56 -8 -220 -51 -285 -76 -126 -48 -130 -50 -130 -74 0
-74 72 -303 95 -303 7 0 28 6 47 14 67 28 215 65 310 76 131 16 347 8 413 -15
130 -47 195 -155 195 -326 0 -95 -75 -199 -226 -315 -87 -67 -87 -61 -22 -189
53 -105 56 -108 92 -101 75 15 202 110 352 265 127 130 184 261 184 424 0 157
-69 327 -172 428 -138 134 -365 201 -672 198 -83 -1 -164 -4 -181 -6z"/>
<path d="M8280 3029 c0 -5 5 -7 10 -4 6 3 10 8 10 11 0 2 -4 4 -10 4 -5 0 -10
-5 -10 -11z"/>
<path d="M8133 1113 c9 -2 23 -2 30 0 6 3 -1 5 -18 5 -16 0 -22 -2 -12 -5z"/>
<path d="M8151 138 c-1 -55 3 -88 9 -88 19 0 20 24 6 100 l-14 75 -1 -87z"/>
</g>
</svg>
